<?xml version="1.0" encoding="UTF-8"?><svg id="Layer_2" xmlns="http://www.w3.org/2000/svg" viewBox="0 0 372.17 282.73"><defs><style>.cls-1{fill:#fff;stroke-width:0px;}</style></defs><g id="Layer_1-2"><path class="cls-1" d="M32.19,110.43c-7.2-14.69-4.73-27.81,6.45-35.73,10.4-7.38,24.65-6,33.46,3.23,9.48,9.93,9.3,23.36-.42,36.17,2.75,2.07,6.01,3.72,8.11,6.31,2.52,3.11,4.68,6.82,5.9,10.63,3.71,11.49,7.03,23.12,10.2,34.78.83,3.05,2.16,3.82,5.13,3.74,7.48-.21,14.97-.08,22.46-.07,11.82.03,17.44,7.7,13.92,19.42,3.87,2.35,8.11,4.37,11.65,7.26,2.58,2.1,5.07,5.02,6.18,8.09,7.01,19.32,13.68,38.77,20.33,58.21,2.87,8.39-1.18,16.78-9.1,19.45-7.97,2.69-16.1-1.41-19.12-9.8-2.82-7.83-5.46-15.72-8.11-23.38h-16.42c.49,1.8.82,3.21,1.26,4.58,2.53,7.82,5.07,15.64,7.64,23.45.83,2.52.99,4.86-2.1,5.75-2.94.84-3.93-1.33-4.66-3.59-2.92-9.01-5.89-17.99-8.71-27.03-.73-2.32-1.7-3.36-4.39-3.34-19.09.14-38.18.13-57.27,0-2.65-.02-3.64.9-4.39,3.31-2.87,9.28-5.96,18.49-8.99,27.73-.69,2.11-2.05,3.65-4.43,2.94-2.46-.73-3.16-2.61-2.3-5.05.25-.7.45-1.43.68-2.14,2.46-7.58,4.93-15.16,7.38-22.75.37-1.16.67-2.34,1.13-3.97-2.57,0-4.77.02-6.98,0-6.63-.06-9.29-2.13-10.87-8.45-4.46-17.89-8.92-35.78-13.36-53.68-3.9-15.72-7.78-31.45-11.66-47.17-3.07-12.43,2.79-22.14,15.19-25.12,5.32-1.28,10.67-2.48,16.2-3.75ZM85.36,241.63c15.96,0,31.92-.07,47.88.06,3.19.03,4.39-.83,4.34-4.2-.17-12.34-.18-24.69,0-37.04.05-3.44-.98-4.48-4.45-4.45-22.44.14-44.89.08-67.33.07-6.56,0-9.3-2.17-10.82-8.47-5.2-21.54-10.37-43.1-15.61-64.63-1.1-4.52-3.45-5.96-7.92-5-4.5.96-8.99,2-13.48,3.04-8.83,2.05-12.44,7.83-10.27,16.59,8.26,33.36,16.58,66.7,24.75,100.08.73,2.97,1.95,4.05,5.03,4.03,15.96-.13,31.92-.06,47.88-.06ZM46.42,121.36c.11.58.26,1.67.52,2.74,4.87,20.23,9.83,40.43,14.53,60.7.79,3.39,2.23,4.37,5.55,4.35,18.59-.13,37.18-.06,55.77-.08,1.36,0,2.77-.04,4.07-.4,3.17-.89,4.76-3.15,4.52-6.43-.23-3.12-2.14-4.99-5.15-5.59-1.2-.24-2.49-.13-3.73-.13-14.22,0-28.44-.03-42.67.02-2.58,0-4.65-.39-5.45-3.33-3.4-12.63-6.89-25.24-10.29-37.86-.63-2.33-.09-4.36,2.56-4.94,2.43-.53,3.69.92,4.24,3.14.21.85.47,1.68.7,2.52,3.02,11.04,6.04,22.09,9.06,33.12h8.9c-3.86-13.12-7.41-25.95-11.45-38.62-2.29-7.18-10.24-11.23-17.67-10.2-4.5.63-9.08.67-14.02.99ZM53.63,114.27c10.12-.07,18.51-8.53,18.49-18.66-.02-10.25-8.66-18.74-18.93-18.59-9.94.14-18.26,8.53-18.3,18.46-.04,10.31,8.49,18.86,18.74,18.78ZM145.84,201.97l-1.1.48c0,11.84-.02,23.68.02,35.51,0,2.09-.15,4.31.48,6.24,2.73,8.4,5.69,16.73,8.64,25.06,1.8,5.08,6.09,7.41,10.45,5.83,4.26-1.54,6.12-5.84,4.41-10.8-6.61-19.18-13.27-38.35-20.01-57.48-.61-1.74-1.91-3.23-2.89-4.84Z"/><path class="cls-1" d="M234.59,188.45c-1.74-4.15-1.76-8.51.81-12.63,2.74-4.4,6.81-6.37,11.96-6.35,8.11.04,16.22-.1,24.33.07,2.58.05,3.67-.71,4.37-3.24,2.78-10.09,6.06-20.04,8.67-30.17,2.43-9.44,6.13-17.67,15.96-21.47-10.1-14.5-10.1-27.28-.27-37.16,8.66-8.7,22.41-10,32.62-3.09,11.48,7.78,13.9,20.09,6.97,36.04,5.47,1.27,10.91,2.49,16.33,3.79,12.09,2.89,18.08,12.75,15.07,24.91-6.53,26.36-13.1,52.72-19.65,79.07-1.8,7.25-3.59,14.51-5.4,21.77-1.63,6.55-4.25,8.58-11.1,8.63-2.11.02-4.22,0-6.91,0,1.8,5.6,3.47,10.77,5.13,15.94,1.26,3.91,2.49,7.83,3.79,11.73.81,2.41,1.37,4.82-1.77,5.86-3.08,1.02-4.17-1.07-4.97-3.57-2.85-8.9-5.85-17.75-8.61-26.67-.73-2.36-1.65-3.38-4.35-3.36-19.09.13-38.18.13-57.27,0-2.65-.02-3.7.91-4.43,3.28-2.8,9.04-5.79,18.03-8.7,27.03-.68,2.11-1.51,4.12-4.29,3.77-2.65-.33-3.58-2.44-2.5-5.82,2.51-7.83,5.1-15.63,7.63-23.45.45-1.38.78-2.79,1.37-4.93-5.38,0-10.2-.11-15.01.11-.78.04-1.82,1.41-2.17,2.37-2.47,6.79-4.77,13.64-7.18,20.45-3.09,8.74-11.05,12.97-19.16,10.24-8.27-2.79-12.09-11.15-9.02-20.05,6.5-18.84,13.11-37.64,19.58-56.49,1.82-5.31,5.05-8.84,10.39-10.93,2.73-1.07,4.91-3.53,7.78-5.69ZM286.53,241.63c16.08,0,32.17-.05,48.25.05,2.63.01,4.08-.64,4.76-3.42,8.31-33.85,16.76-67.67,25.09-101.52,1.86-7.54-2.07-13.75-9.57-15.56-4.11-.99-8.25-1.9-12.37-2.85-6.98-1.6-8.85-.42-10.53,6.58-4.97,20.7-9.94,41.4-14.93,62.1-1.71,7.11-4.19,9.06-11.47,9.06-22.32,0-44.64.06-66.95-.06-3.26-.02-4.32.94-4.28,4.25.17,12.34.18,24.69,0,37.04-.06,3.52,1.12,4.45,4.51,4.42,15.83-.15,31.67-.07,47.5-.07ZM291.36,169.32c.38-1.29.74-2.47,1.07-3.66,2.89-10.57,5.79-21.13,8.65-31.7.66-2.43,1.79-4.37,4.62-3.6,2.86.77,2.84,3.14,2.21,5.49-3.32,12.25-6.74,24.48-9.99,36.75-.78,2.94-2.42,4.02-5.36,3.97-6.85-.11-13.71-.03-20.57-.03-8.35,0-16.71-.05-25.06.02-3.56.03-6,2.39-6.24,5.67-.23,3.31,1.85,5.94,5.31,6.58.97.18,1.98.2,2.98.2,18.82.01,37.65-.04,56.47.06,3.02.02,4.34-.93,5.06-4,4.76-20.36,9.75-40.68,14.64-61.01.27-1.12.37-2.28.54-3.34-4.41,0-8.58.56-12.54-.11-9.34-1.59-17.2,2.9-19.91,12.07-2.68,9.07-5.31,18.16-7.96,27.24-.89,3.05-1.76,6.11-2.7,9.4h8.78ZM318.49,77.03c-10.1.06-18.46,8.47-18.52,18.63-.06,10.03,8.5,18.62,18.54,18.61,10.3,0,18.81-8.57,18.7-18.82-.11-10.14-8.58-18.48-18.71-18.42ZM227.41,202.44c-.41-.16-.81-.32-1.22-.48-1,1.74-2.29,3.38-2.94,5.25-6.65,18.9-13.23,37.84-19.77,56.78-1.8,5.21-.01,9.6,4.35,11.14,4.47,1.57,8.63-.87,10.54-6.24,2.12-5.98,4.05-12.04,6.32-17.96,2.03-5.3,2.97-10.62,2.8-16.35-.32-10.7-.09-21.42-.09-32.13Z"/><path class="cls-1" d="M185.66,117.61c-10.48.05-20.52-2.05-30.28-5.82-1.51-.58-3.66-.53-5.16.08-8.06,3.3-15.97,6.98-24.05,10.25-1.86.76-4.16.44-6.26.62-.1-2.2-.74-4.55-.2-6.58,2.05-7.7,4.55-15.27,6.7-22.94.35-1.25.28-3.11-.43-4.09-15.88-21.93-13.17-52.98,12.14-73.17,28.05-22.38,72.86-21.11,99.43,3.05,25.88,23.53,24.32,60.81-3.52,82.57-14.19,11.09-30.49,16-48.36,16.03ZM127.79,113.78c7.3-3.17,13.78-5.76,20.04-8.8,3.44-1.67,6.29-1.54,9.85-.15,24.28,9.49,47.76,7.86,69.44-7,25.32-17.36,29.06-48.57,8.98-70.3C213.03,2.56,168.27.11,141.56,22.26c-21,17.42-24.27,44.15-8.5,64.57,1.11,1.43,1.23,4.25.75,6.17-1.68,6.72-3.82,13.33-6.03,20.78Z"/><path class="cls-1" d="M154.14,57.3c0-1.36-.45-2.95.1-4.03.73-1.43,2.23-2.47,3.4-3.68,1.2,1.18,3.17,2.2,3.44,3.57.55,2.74.54,5.74,0,8.48-.27,1.38-2.19,2.43-3.36,3.63-1.2-1.17-2.79-2.15-3.47-3.57-.58-1.2-.12-2.91-.12-4.4Z"/><path class="cls-1" d="M189.63,57.58c0,1.37.44,2.96-.11,4.04-.72,1.43-2.2,3.37-3.4,3.4-1.18.03-3.2-1.89-3.47-3.23-.55-2.75-.55-5.75-.02-8.51.27-1.4,2.18-2.48,3.34-3.7,1.21,1.17,2.82,2.15,3.52,3.58.59,1.2.12,2.92.12,4.41h.01Z"/><path class="cls-1" d="M210.9,57.13c0-1.49-.47-3.22.13-4.41.66-1.31,2.24-2.78,3.55-2.92.99-.1,2.97,1.67,3.14,2.81.46,3.03.5,6.23.03,9.26-.19,1.2-2.32,3.11-3.29,2.95-1.35-.22-2.83-1.88-3.5-3.28-.58-1.21-.12-2.92-.12-4.41.02,0,.03,0,.05,0Z"/></g></svg>