<?xml version="1.0" encoding="UTF-8"?>
<svg version="1.1" xmlns="http://www.w3.org/2000/svg" width="358" height="358">
<path d="M0 0 C1.93647101 0.58395527 3.89411913 1.09621519 5.8515625 1.60546875 C12.81733127 3.42262582 18.95588422 5.80484471 25.2890625 9.23828125 C27.96591086 10.67112937 27.96591086 10.67112937 30.82421875 11.515625 C34.93325974 12.9222783 38.62250488 14.87305397 42.4453125 16.91796875 C43.17041016 17.29630859 43.89550781 17.67464844 44.64257812 18.06445312 C49.39352063 20.58719079 53.66177684 23.43983784 58.0078125 26.60546875 C59.585625 27.37890625 59.585625 27.37890625 61.1953125 28.16796875 C64.09856659 29.65185417 65.76057671 31.2833251 68.0078125 33.60546875 C70.14090442 34.84058954 70.14090442 34.84058954 72.0078125 35.60546875 C72.0078125 36.26546875 72.0078125 36.92546875 72.0078125 37.60546875 C72.6059375 37.87359375 73.2040625 38.14171875 73.8203125 38.41796875 C76.75492444 40.0110438 78.53632278 41.38745364 79.7578125 44.54296875 C80.04565573 46.91767538 79.89667897 48.38330258 79.0078125 50.60546875 C75.28491943 53.08739746 72.3161794 53.01704039 68.0078125 52.60546875 C64.09945632 51.37712824 61.82071012 48.49238999 59.0078125 45.60546875 C58.3478125 45.27546875 57.6878125 44.94546875 57.0078125 44.60546875 C57.0078125 43.94546875 57.0078125 43.28546875 57.0078125 42.60546875 C56.43160156 42.49589844 55.85539063 42.38632813 55.26171875 42.2734375 C52.7270308 41.52225615 51.09527017 40.4490601 48.9453125 38.91796875 C36.17706961 30.19819312 21.65653978 23.48219695 7.0078125 18.60546875 C6.37520508 18.38004395 5.74259766 18.15461914 5.09082031 17.92236328 C-23.44281234 7.7563472 -54.0706282 5.53092822 -83.9921875 9.60546875 C-84.88470215 9.72519043 -85.7772168 9.84491211 -86.69677734 9.96826172 C-105.99907166 12.69496696 -124.84994653 18.23358614 -141.9921875 27.60546875 C-143.21329964 28.14491588 -144.44174562 28.66835095 -145.6796875 29.16796875 C-152.97480086 32.33377266 -159.96399533 36.38291501 -166.1796875 41.35546875 C-167.9921875 42.60546875 -167.9921875 42.60546875 -170.9921875 42.60546875 C-170.9921875 43.26546875 -170.9921875 43.92546875 -170.9921875 44.60546875 C-172.97908481 45.9582499 -174.97963968 47.2911518 -176.9921875 48.60546875 C-177.3221875 49.26546875 -177.6521875 49.92546875 -177.9921875 50.60546875 C-181.75950811 53.31793959 -185.54038468 52.8881229 -189.9921875 52.60546875 C-192.9921875 50.60546875 -192.9921875 50.60546875 -194.0546875 47.91796875 C-193.97269368 43.57229616 -192.37875028 42.04630487 -189.53515625 38.92578125 C-187.9921875 37.60546875 -187.9921875 37.60546875 -185.9921875 37.60546875 C-185.6621875 36.61546875 -185.3321875 35.62546875 -184.9921875 34.60546875 C-183.00111502 33.58780948 -180.99999927 32.58969021 -178.9921875 31.60546875 C-178.095 30.67734375 -178.095 30.67734375 -177.1796875 29.73046875 C-173.91091965 26.55509427 -169.99505134 24.73027661 -165.9921875 22.60546875 C-162.68043566 20.73089224 -159.38935763 18.84670478 -156.13671875 16.87109375 C-150.75644581 13.63624642 -146.08320407 11.20836785 -139.9921875 9.60546875 C-138.21601233 8.72027396 -136.44610094 7.82248609 -134.6796875 6.91796875 C-119.65785913 -0.16648565 -102.463879 -3.8474663 -85.9921875 -5.39453125 C-84.61520794 -5.5729728 -83.23892461 -5.75684651 -81.86328125 -5.9453125 C-54.82504075 -9.54356891 -26.10933439 -8.06749096 0 0 Z " fill="#FFFFFF" transform="translate(235.9921875,95.39453125)"/>
<path d="M0 0 C1.3468853 0.59995427 2.70003561 1.18631931 4.0625 1.75 C6.42808391 2.75663145 8.72039314 3.81460443 11 5 C11 5.66 11 6.32 11 7 C12.02738281 7.24105469 13.05476562 7.48210937 14.11328125 7.73046875 C18.0743527 8.86604901 20.91229526 10.79148212 24.1875 13.3125 C25.19167969 14.07175781 26.19585937 14.83101562 27.23046875 15.61328125 C29.90405046 17.91731288 32.01733606 20.08292267 34 23 C33.93689022 26.15548924 33.48864121 28.13769198 31.9375 30.875 C28.65437167 32.78133258 25.58885714 32.91012384 22 32 C19.81222436 30.46252775 17.9944514 28.74606202 16.08203125 26.87890625 C13.33421153 24.3991665 10.35849975 22.8162121 7.078125 21.140625 C5 20 5 20 3.0390625 18.484375 C0.80370606 16.85710403 -1.28949178 15.96654513 -3.875 15 C-6.58965767 13.97881216 -9.12522322 12.93320215 -11.6875 11.56640625 C-16.04472277 9.50597426 -20.49329547 8.23850321 -25.125 6.9375 C-25.99898437 6.68162109 -26.87296875 6.42574219 -27.7734375 6.16210938 C-39.47247025 2.83541074 -50.656885 1.633588 -62.8125 1.6875 C-63.47563202 1.68965515 -64.13876404 1.6918103 -64.82199097 1.69403076 C-74.65240315 1.74527943 -83.52419627 2.27811854 -93 5 C-94.74557971 5.45510123 -96.4917218 5.90804837 -98.23828125 6.359375 C-100.11808303 6.86124093 -101.99699671 7.36644538 -103.875 7.875 C-104.74390869 8.10719238 -105.61281738 8.33938477 -106.50805664 8.57861328 C-111.78327209 10.08263885 -116.31899656 12.05907003 -121.03320312 14.86962891 C-123 16 -123 16 -126.625 17.5 C-129.89905633 18.95513615 -132.3965726 20.60930955 -135.23828125 22.7421875 C-136.99893259 23.9992379 -138.78650867 25.03296525 -140.6875 26.0625 C-144.00982388 27.76519471 -144.00982388 27.76519471 -145.9375 30.25 C-148.6654625 32.56463485 -150.58303477 32.63930746 -154.08984375 32.44921875 C-156 32 -156 32 -158.5625 29.875 C-160 27 -160 27 -160.0625 24 C-157.58091857 16.99318186 -150.15303275 12.70710669 -144 9 C-141.6225246 8.03889292 -139.5268336 7.49438049 -137 7 C-137 6.34 -137 5.68 -137 5 C-132.83266694 2.48223628 -128.87568344 0.46472836 -124.26293945 -1.15893555 C-121.65608976 -2.12782078 -119.14681191 -3.26506967 -116.60546875 -4.39453125 C-109.88043408 -7.20596296 -103.12628457 -8.80295968 -96 -10.25 C-94.81921875 -10.50523437 -93.6384375 -10.76046875 -92.421875 -11.0234375 C-62.37024968 -17.31177319 -27.38554587 -14.6258779 0 0 Z " fill="#FFFFFF" transform="translate(242,161)"/>
<path d="M0 0 C1.06089844 0.07863281 2.12179688 0.15726563 3.21484375 0.23828125 C17.60735714 1.74468555 33.67772131 8.67772131 44 19 C44.54697345 23.0111386 44.29459835 24.58042052 41.9375 27.9375 C39 30 39 30 35.5 30.0625 C32 29 32 29 29.8203125 27.19140625 C13.36339503 14.40424461 -8.03292441 13.40012437 -27.9375 15.39453125 C-38.1505583 17.226735 -49.64831326 21.63712985 -57.76953125 28.2578125 C-60 30 -60 30 -63.625 29.9375 C-68.54285714 28.57142857 -68.54285714 28.57142857 -70 26 C-70.75 22.75 -70.75 22.75 -70 19 C-64.9229007 13.39850547 -57.83995699 9.96828322 -51 7 C-49.83726562 6.48179687 -48.67453125 5.96359375 -47.4765625 5.4296875 C-32.09453666 -1.08344018 -16.44937063 -1.76180958 0 0 Z " fill="#FFFFFF" transform="translate(192,208)"/>
<path d="M0 0 C3.14344435 1.74635797 5.46862726 3.46862726 8 6 C8.56786727 9.71205869 8.53676586 13.28558023 8 17 C5.5659688 20.22344672 3.33795435 21.7746971 0 24 C-5.97208982 24.69674381 -8.92421357 23.97248055 -13.65234375 20.2890625 C-16.31976172 17.73761923 -16.27891455 15.23885296 -16.4375 11.6875 C-16.4174659 6.59215932 -16.4174659 6.59215932 -14.73046875 4.19921875 C-10.0816118 0.3647601 -5.94222296 -0.82837681 0 0 Z " fill="#FFFFFF" transform="translate(183,267)"/>
</svg>
